<svg xmlns="http://www.w3.org/2000/svg" viewBox="0 0 3193.5 845.6" role="img" aria-label="bumbl wordmark">
  <g transform="translate(8.41,774.28) scale(1,-1)">
    <path d="M376.373291015625 -11.277099609375Q319.481689453125 -11.277099609375 274.8973388671875 16.5301513671875Q230.31298828125 44.33740234375 215.9515380859375 89.3133544921875L226.9515380859375 130.277099609375V80.9034423828125Q226.9515380859375 37.1324462890625 204.5660400390625 13.92767333984375Q182.1805419921875 -9.277099609375 139.77099609375 -9.277099609375Q97 -9.277099609375 74.29522705078125 13.92767333984375Q51.5904541015625 37.1324462890625 51.5904541015625 80.9034423828125V624.4580078125Q51.5904541015625 668.22900390625 74.614501953125 691.2530517578125Q97.6385498046875 714.277099609375 140.4095458984375 714.277099609375Q183.1805419921875 714.277099609375 206.38531494140625 691.2530517578125Q229.590087890625 668.22900390625 229.590087890625 624.4580078125V409.7950439453125H217.590087890625Q232.9515380859375 451.1324462890625 277.035888671875 477.3011474609375Q321.1202392578125 503.4698486328125 376.373291015625 503.4698486328125Q440.09619140625 503.4698486328125 488.41546630859375 472.4698486328125Q536.7347412109375 441.4698486328125 564.0540161132812 384.01202392578125Q591.373291015625 326.55419921875 591.373291015625 246.277099609375Q591.373291015625 167 564.0540161132812 108.8614501953125Q536.7347412109375 50.722900390625 488.2347412109375 19.722900390625Q439.7347412109375 -11.277099609375 376.373291015625 -11.277099609375ZM319.66259765625 120.1202392578125Q347.0843505859375 120.1202392578125 367.74102783203125 133.33111572265625Q388.397705078125 146.5419921875 400.38568115234375 174.37939453125Q412.3736572265625 202.216796875 412.3736572265625 246.277099609375Q412.3736572265625 312.8675537109375 386.35552978515625 342.47003173828125Q360.33740234375 372.072509765625 319.66259765625 372.072509765625Q292.87939453125 372.072509765625 271.9034423828125 359.0423583984375Q250.927490234375 346.01220703125 238.93951416015625 318.49407958984375Q226.9515380859375 290.9759521484375 226.9515380859375 246.277099609375Q226.9515380859375 180.048095703125 252.96966552734375 150.08416748046875Q278.98779296875 120.1202392578125 319.66259765625 120.1202392578125Z" fill="#F4F1E8" transform="translate(0.00,0)"/>
    <path d="M235.614501953125 -11.277099609375Q172.060302734375 -11.277099609375 130.783203125 12.18072509765625Q89.506103515625 35.6385498046875 69.3675537109375 82.87347412109375Q49.22900390625 130.1083984375 49.22900390625 201.5782470703125V411.6507568359375Q49.22900390625 455.783203125 72.2530517578125 478.62652587890625Q95.277099609375 501.4698486328125 138.048095703125 501.4698486328125Q180.819091796875 501.4698486328125 204.02386474609375 478.62652587890625Q227.2286376953125 455.783203125 227.2286376953125 411.6507568359375V197.0240478515625Q227.2286376953125 160.98779296875 242.16241455078125 143.0118408203125Q257.09619140625 125.035888671875 289.048095703125 125.035888671875Q325 125.035888671875 348.060302734375 151.2347412109375Q371.12060546875 177.43359375 371.12060546875 219.7469482421875V411.6507568359375Q371.12060546875 455.783203125 394.1446533203125 478.62652587890625Q417.168701171875 501.4698486328125 459.939697265625 501.4698486328125Q502.710693359375 501.4698486328125 525.9154663085938 478.62652587890625Q549.1202392578125 455.783203125 549.1202392578125 411.6507568359375V80.9034423828125Q549.1202392578125 -9.277099609375 462.5782470703125 -9.277099609375Q420.8072509765625 -9.277099609375 398.10247802734375 13.92767333984375Q375.397705078125 37.1324462890625 375.397705078125 80.9034423828125V139.0240478515625L391.3133544921875 89.8675537109375Q369.0362548828125 40.9759521484375 329.72900390625 14.84942626953125Q290.4217529296875 -11.277099609375 235.614501953125 -11.277099609375Z" fill="#F4F1E8" transform="translate(580.00,0)"/>
    <path d="M142.4095458984375 -9.277099609375Q99.6385498046875 -9.277099609375 76.614501953125 13.92767333984375Q53.5904541015625 37.1324462890625 53.5904541015625 80.9034423828125V411.6507568359375Q53.5904541015625 455.4217529296875 76.29522705078125 478.44580078125Q99 501.4698486328125 140.77099609375 501.4698486328125Q182.5419921875 501.4698486328125 204.927490234375 478.44580078125Q227.31298828125 455.4217529296875 227.31298828125 411.6507568359375V357.168701171875L216.31298828125 406.3251953125Q236.9515380859375 449.939697265625 278.63226318359375 476.70477294921875Q320.31298828125 503.4698486328125 377.035888671875 503.4698486328125Q430.927490234375 503.4698486328125 469.24676513671875 477.385498046875Q507.5660400390625 451.3011474609375 525.1202392578125 397.77099609375H511.1202392578125Q534.31298828125 446.939697265625 579.9937133789062 475.20477294921875Q625.6744384765625 503.4698486328125 682.481689453125 503.4698486328125Q739.7587890625 503.4698486328125 776.8973388671875 480.51202392578125Q814.035888671875 457.55419921875 832.3551635742188 410.5Q850.6744384765625 363.44580078125 850.6744384765625 290.9759521484375V80.9034423828125Q850.6744384765625 37.1324462890625 827.4696655273438 13.92767333984375Q804.264892578125 -9.277099609375 761.493896484375 -9.277099609375Q718.722900390625 -9.277099609375 695.6988525390625 13.92767333984375Q672.6748046875 37.1324462890625 672.6748046875 80.9034423828125V285.9759521484375Q672.6748046875 329.2049560546875 659.9217529296875 348.180908203125Q647.168701171875 367.1568603515625 616.5782470703125 367.1568603515625Q580.3492431640625 367.1568603515625 560.650390625 341.27728271484375Q540.9515380859375 315.397705078125 540.9515380859375 266.5301513671875V80.9034423828125Q540.9515380859375 37.1324462890625 517.927490234375 13.92767333984375Q494.9034423828125 -9.277099609375 452.1324462890625 -9.277099609375Q409.3614501953125 -9.277099609375 386.15667724609375 13.92767333984375Q362.951904296875 37.1324462890625 362.951904296875 80.9034423828125V285.9759521484375Q362.951904296875 329.2049560546875 350.1988525390625 348.180908203125Q337.44580078125 367.1568603515625 307.216796875 367.1568603515625Q270.98779296875 367.1568603515625 251.2889404296875 341.27728271484375Q231.590087890625 315.397705078125 231.590087890625 266.5301513671875V80.9034423828125Q231.590087890625 -9.277099609375 142.4095458984375 -9.277099609375Z" fill="#F4F1E8" transform="translate(1141.00,0)"/>
    <path d="M376.373291015625 -11.277099609375Q319.481689453125 -11.277099609375 274.8973388671875 16.5301513671875Q230.31298828125 44.33740234375 215.9515380859375 89.3133544921875L226.9515380859375 130.277099609375V80.9034423828125Q226.9515380859375 37.1324462890625 204.5660400390625 13.92767333984375Q182.1805419921875 -9.277099609375 139.77099609375 -9.277099609375Q97 -9.277099609375 74.29522705078125 13.92767333984375Q51.5904541015625 37.1324462890625 51.5904541015625 80.9034423828125V624.4580078125Q51.5904541015625 668.22900390625 74.614501953125 691.2530517578125Q97.6385498046875 714.277099609375 140.4095458984375 714.277099609375Q183.1805419921875 714.277099609375 206.38531494140625 691.2530517578125Q229.590087890625 668.22900390625 229.590087890625 624.4580078125V409.7950439453125H217.590087890625Q232.9515380859375 451.1324462890625 277.035888671875 477.3011474609375Q321.1202392578125 503.4698486328125 376.373291015625 503.4698486328125Q440.09619140625 503.4698486328125 488.41546630859375 472.4698486328125Q536.7347412109375 441.4698486328125 564.0540161132812 384.01202392578125Q591.373291015625 326.55419921875 591.373291015625 246.277099609375Q591.373291015625 167 564.0540161132812 108.8614501953125Q536.7347412109375 50.722900390625 488.2347412109375 19.722900390625Q439.7347412109375 -11.277099609375 376.373291015625 -11.277099609375ZM319.66259765625 120.1202392578125Q347.0843505859375 120.1202392578125 367.74102783203125 133.33111572265625Q388.397705078125 146.5419921875 400.38568115234375 174.37939453125Q412.3736572265625 202.216796875 412.3736572265625 246.277099609375Q412.3736572265625 312.8675537109375 386.35552978515625 342.47003173828125Q360.33740234375 372.072509765625 319.66259765625 372.072509765625Q292.87939453125 372.072509765625 271.9034423828125 359.0423583984375Q250.927490234375 346.01220703125 238.93951416015625 318.49407958984375Q226.9515380859375 290.9759521484375 226.9515380859375 246.277099609375Q226.9515380859375 180.048095703125 252.96966552734375 150.08416748046875Q278.98779296875 120.1202392578125 319.66259765625 120.1202392578125Z" fill="#F4F1E8" transform="translate(2003.00,0)"/>
    <path d="M239.0240478515625 -11.277099609375Q142.614501953125 -11.277099609375 97.10247802734375 40.37347412109375Q51.5904541015625 92.0240478515625 51.5904541015625 196.156494140625V624.4580078125Q51.5904541015625 668.22900390625 74.614501953125 691.2530517578125Q97.6385498046875 714.277099609375 140.4095458984375 714.277099609375Q183.1805419921875 714.277099609375 206.38531494140625 691.2530517578125Q229.590087890625 668.22900390625 229.590087890625 624.4580078125V201.5179443359375Q229.590087890625 165.09619140625 244.30096435546875 148.20458984375Q259.0118408203125 131.31298828125 281.602294921875 131.31298828125Q288.9637451171875 131.31298828125 296.602294921875 132.77081298828125Q304.2408447265625 134.2286376953125 312.5179443359375 134.590087890625Q330.3492431640625 135.31298828125 338.5419921875 122.30096435546875Q346.7347412109375 109.2889404296875 346.7347412109375 68.7950439453125Q346.7347412109375 34.216796875 332.9034423828125 16.70477294921875Q319.0721435546875 -0.8072509765625 290.3251953125 -6.3614501953125Q282.2408447265625 -7.3614501953125 267.09027099609375 -9.31927490234375Q251.939697265625 -11.277099609375 239.0240478515625 -11.277099609375Z" fill="#F4F1E8" transform="translate(2583.00,0)"/>
    <path d="M136.493896484375 -5.6385498046875Q91 -5.6385498046875 64.43377685546875 21.42767333984375Q37.8675537109375 48.493896484375 37.8675537109375 91.710693359375Q37.8675537109375 134.5660400390625 64.43377685546875 161.13226318359375Q91 187.698486328125 136.493896484375 187.698486328125Q182.98779296875 187.698486328125 208.55401611328125 161.13226318359375Q234.1202392578125 134.5660400390625 234.1202392578125 91.710693359375Q234.1202392578125 48.493896484375 208.55401611328125 21.42767333984375Q182.98779296875 -5.6385498046875 136.493896484375 -5.6385498046875Z" fill="#D9B84F" transform="translate(2891.00,0)"/>
  </g>
</svg>
