<svg xmlns="http://www.w3.org/2000/svg" viewBox="660 313 1304 1304" width="1304" height="1304" role="img" aria-label="bumbl statement mark">
  <circle cx="1312" cy="964" r="652" fill="#1C2E3D"/>
  <g transform="translate(896.653,574.006) scale(0.922450)">
    <g transform="translate(8.41,774.28) scale(1,-1)">
      <path d="M376.373291015625 -11.277099609375Q319.481689453125 -11.277099609375 274.8973388671875 16.5301513671875Q230.31298828125 44.33740234375 215.9515380859375 89.3133544921875L226.9515380859375 130.277099609375V80.9034423828125Q226.9515380859375 37.1324462890625 204.5660400390625 13.92767333984375Q182.1805419921875 -9.277099609375 139.77099609375 -9.277099609375Q97 -9.277099609375 74.29522705078125 13.92767333984375Q51.5904541015625 37.1324462890625 51.5904541015625 80.9034423828125V624.4580078125Q51.5904541015625 668.22900390625 74.614501953125 691.2530517578125Q97.6385498046875 714.277099609375 140.4095458984375 714.277099609375Q183.1805419921875 714.277099609375 206.38531494140625 691.2530517578125Q229.590087890625 668.22900390625 229.590087890625 624.4580078125V409.7950439453125H217.590087890625Q232.9515380859375 451.1324462890625 277.035888671875 477.3011474609375Q321.1202392578125 503.4698486328125 376.373291015625 503.4698486328125Q440.09619140625 503.4698486328125 488.41546630859375 472.4698486328125Q536.7347412109375 441.4698486328125 564.0540161132812 384.01202392578125Q591.373291015625 326.55419921875 591.373291015625 246.277099609375Q591.373291015625 167 564.0540161132812 108.8614501953125Q536.7347412109375 50.722900390625 488.2347412109375 19.722900390625Q439.7347412109375 -11.277099609375 376.373291015625 -11.277099609375ZM319.66259765625 120.1202392578125Q347.0843505859375 120.1202392578125 367.74102783203125 133.33111572265625Q388.397705078125 146.5419921875 400.38568115234375 174.37939453125Q412.3736572265625 202.216796875 412.3736572265625 246.277099609375Q412.3736572265625 312.8675537109375 386.35552978515625 342.47003173828125Q360.33740234375 372.072509765625 319.66259765625 372.072509765625Q292.87939453125 372.072509765625 271.9034423828125 359.0423583984375Q250.927490234375 346.01220703125 238.93951416015625 318.49407958984375Q226.9515380859375 290.9759521484375 226.9515380859375 246.277099609375Q226.9515380859375 180.048095703125 252.96966552734375 150.08416748046875Q278.98779296875 120.1202392578125 319.66259765625 120.1202392578125Z" fill="#F4F1E8"/>
      <path d="M136.493896484375 -5.6385498046875Q91 -5.6385498046875 64.43377685546875 21.42767333984375Q37.8675537109375 48.493896484375 37.8675537109375 91.710693359375Q37.8675537109375 134.5660400390625 64.43377685546875 161.13226318359375Q91 187.698486328125 136.493896484375 187.698486328125Q182.98779296875 187.698486328125 208.55401611328125 161.13226318359375Q234.1202392578125 134.5660400390625 234.1202392578125 91.710693359375Q234.1202392578125 48.493896484375 208.55401611328125 21.42767333984375Q182.98779296875 -5.6385498046875 136.493896484375 -5.6385498046875Z" fill="#D9B84F" transform="translate(598.00,0)"/>
    </g>
  </g>
</svg>
