<svg xmlns="http://www.w3.org/2000/svg" viewBox="791 444 1041 1041" width="1041" height="1041"><path fill-rule="evenodd" fill="#1C2E3D" d="M 1312 709 L 1336 715 L 1350 729 L 1354 746 L 1359 753 L 1360 765 L 1365 771 L 1367 786 L 1372 792 L 1373 804 L 1379 814 L 1380 825 L 1393 850 L 1407 865 L 1417 881 L 1428 886 L 1447 903 L 1472 916 L 1486 918 L 1493 923 L 1529 924 L 1542 930 L 1604 929 L 1610 924 L 1617 923 L 1649 924 L 1665 937 L 1675 952 L 1681 969 L 1686 974 L 1687 992 L 1693 1004 L 1693 1060 L 1679 1113 L 1667 1138 L 1657 1148 L 1649 1164 L 1614 1199 L 1595 1210 L 1575 1228 L 1556 1236 L 1547 1245 L 1530 1249 L 1498 1267 L 1485 1268 L 1480 1273 L 1465 1275 L 1460 1280 L 1447 1281 L 1436 1287 L 1412 1288 L 1406 1293 L 1364 1294 L 1351 1300 L 1281 1299 L 1274 1294 L 1229 1293 L 1223 1288 L 1196 1286 L 1189 1281 L 1171 1280 L 1164 1275 L 1132 1267 L 1065 1234 L 1056 1225 L 1046 1221 L 1037 1212 L 1020 1203 L 981 1163 L 975 1150 L 964 1138 L 944 1098 L 943 1081 L 937 1069 L 938 993 L 943 985 L 944 974 L 958 947 L 975 928 L 981 924 L 995 923 L 1012 930 L 1094 929 L 1101 924 L 1132 923 L 1137 918 L 1152 916 L 1159 911 L 1171 910 L 1183 904 L 1194 894 L 1208 887 L 1231 862 L 1257 810 L 1259 796 L 1270 778 L 1271 762 L 1276 753 L 1280 728 L 1290 718 L 1298 714 L 1309 713 Z  M 907 663 L 920 651 L 949 636 L 998 635 L 1012 629 L 1074 630 L 1082 635 L 1145 636 L 1151 641 L 1172 643 L 1202 659 L 1218 675 L 1223 694 L 1228 702 L 1227 753 L 1222 761 L 1221 778 L 1216 785 L 1214 799 L 1201 825 L 1192 834 L 1183 850 L 1168 862 L 1138 875 L 1133 880 L 1117 882 L 1111 887 L 1001 887 L 991 881 L 973 880 L 944 864 L 916 837 L 910 825 L 910 817 L 905 812 L 903 796 L 898 790 L 897 753 L 891 741 L 892 698 L 897 691 L 898 679 Z  M 1419 668 L 1435 652 L 1452 648 L 1458 643 L 1473 641 L 1480 636 L 1541 635 L 1556 629 L 1637 630 L 1644 635 L 1682 636 L 1694 642 L 1719 665 L 1732 687 L 1732 785 L 1727 791 L 1725 805 L 1720 812 L 1719 824 L 1706 845 L 1693 857 L 1646 881 L 1628 882 L 1622 887 L 1519 887 L 1512 882 L 1497 880 L 1469 865 L 1440 836 L 1416 791 L 1414 770 L 1409 763 L 1409 686 Z  M 1627 1038 L 1623 1028 L 1613 1018 L 1595 1007 L 1583 1004 L 1571 1010 L 1568 1018 L 1571 1024 L 1581 1030 L 1581 1036 L 1566 1042 L 1553 1053 L 1524 1068 L 1510 1070 L 1492 1081 L 1471 1083 L 1465 1088 L 1446 1089 L 1439 1094 L 1406 1096 L 1399 1101 L 1343 1102 L 1331 1107 L 1320 1102 L 1224 1101 L 1212 1095 L 1183 1094 L 1176 1089 L 1159 1088 L 1152 1083 L 1117 1074 L 1113 1070 L 1098 1068 L 1071 1054 L 1057 1041 L 1052 1032 L 1052 1025 L 1056 1021 L 1054 1011 L 1022 1010 L 1012 1015 L 998 1032 L 996 1052 L 1003 1068 L 1010 1069 L 1016 1057 L 1023 1056 L 1025 1061 L 1034 1064 L 1048 1076 L 1111 1108 L 1126 1110 L 1132 1115 L 1143 1116 L 1154 1122 L 1172 1123 L 1184 1129 L 1205 1130 L 1212 1135 L 1263 1136 L 1269 1141 L 1348 1142 L 1362 1141 L 1368 1136 L 1418 1135 L 1430 1129 L 1454 1128 L 1460 1123 L 1477 1122 L 1484 1117 L 1519 1108 L 1557 1089 L 1568 1079 L 1582 1072 L 1595 1058 L 1608 1057 L 1613 1062 L 1620 1062 L 1627 1050 Z  M 1109 689 L 1092 696 L 1085 703 L 1076 720 L 1075 737 L 1070 744 L 1070 759 L 1075 766 L 1077 785 L 1086 796 L 1090 807 L 1111 815 L 1132 815 L 1148 808 L 1165 789 L 1170 774 L 1169 764 L 1174 758 L 1174 738 L 1169 732 L 1167 718 L 1156 700 L 1139 690 Z  M 1499 688 L 1478 696 L 1471 703 L 1456 733 L 1456 772 L 1468 796 L 1475 804 L 1494 814 L 1516 814 L 1535 805 L 1548 788 L 1549 777 L 1554 771 L 1554 725 L 1545 708 L 1532 694 L 1521 689 Z "/></svg>